<svg version="1.1" viewBox="0 0 1080 1080" width="1280" height="1280" xmlns="http://www.w3.org/2000/svg">
            <path transform="translate(827,481)" d="m0 0h20l3 7 11 42 2 8 1-56 1-1h13l1 1v101l-1 1h-16l-7-24-12-45-1 69h-15z" fill="#1B1B1B" />
            <path transform="translate(706,481)" d="m0 0h15l1 4 1 40h16l1-43 1-1h15l1 1v101l-1 1h-15l-1-1v-43h-18v43l-1 1h-15l-1-1v-101z" fill="#1C1C1C" />
            <path transform="translate(623,481)" d="m0 0h33l10 5 4 6 2 13v9l-2 11-4 6-4 4 4 2 4 5 2 11 1 31h-16l-1-1-1-8-1-27-3-4-4-1h-7l-1 41h-16zm16 15v31h12l4-5v-22l-4-4z" fill="#161616" />
            <path transform="translate(199,511)" d="m0 0 7 1 5 5v10l-2 3 7 2 15 4 12 5 11 7 10 9 8 9 8 13 5 11 3 11 1 6 1 23 5 1v20l-3 1h-182l-3-2v-18l1-2 4-1 1-18 3-16 5-13 6-11 10-13 10-9 13-8 14-6 18-4 2-1-3-4v-8l5-6zm1 5-4 3v6l4 3 5-1 2-2-1-7zm-9 20-15 3-19 9-14 11-11 13-9 17-4 14-1 7v20h166v-23l-4-16-8-16-8-11-7-7-12-9-14-7-9-3-11-2zm-78 99-1 1v11h179v-11l-1-1z" fill="#181818" />
            <path transform="translate(581,480)" d="m0 0h14l8 3 6 7 3 7v71l-4 9-5 5-7 3h-16l-8-4-6-7-2-6v-71l4-9 7-6zm3 15-4 4v67l3 4 8 1 5-4 1-4v-60l-3-7-2-1z" fill="#171717" />
            <path transform="translate(462,481)" d="m0 0h23l4 21 12 75v7h-16l-3-17-19-1-2 14-1 4h-15l6-39 10-63zm10 23-3 16-4 27v4h15l-1-11-5-34z" fill="#191919" />
            <path transform="translate(768,481)" d="m0 0h16l1 84 1 3 3 2h6l4-1 1-5 1-83h15v85l-3 9-6 7-6 3h-18l-8-4-5-7-2-7z" fill="#111" />
            <path transform="translate(502,481)" d="m0 0h15l2 6 10 69v5h2l2-18 9-61 1-1h14l-1 12-14 90-1 1h-24l-9-56-6-39z" fill="#1A1A1A" />
            <path transform="translate(349,481)" d="m0 0h42v15h-26v31h20l1 1v12l-1 2h-20v41l-1 1h-15l-1-1v-101z" fill="#232323" />
            <path transform="translate(886,481)" d="m0 0h50v14l-1 1h-16v88h-16v-88h-16l-1-1z" fill="#111" />
            <path transform="translate(399,481)" d="m0 0h16l1 89h26v14h-43z" fill="#111" />
            <path transform="translate(196,453)" d="m0 0 4 1 5 3 5 5-2 5-6 3 5 4 3 5-5 5-4 1 1 2 6 3 2 5-3 4-6 3-2 2h-4l1-5 6-4 1-2-6-2-2-2v-5l5-4h3v-3l-5-1-3-3v-5l8-5-7-4-1-5z" fill="#212121" />
            <path transform="translate(289,506)" d="m0 0 5 1 2 6 7 3v4l-4 3h-2v8l-3 2-5-3h-10v-11l-3-6 1-1 9-2zm1 8-5 3 1 6 6 1 2-6-2-1z" fill="#1A1A1A" />
            <path transform="translate(179,552)" d="m0 0 4 1-1 4-15 6-10 8-7 8-4 7-5 12-2 6-4-1 1-9 5-12 8-11 7-7 11-7z" fill="#212121" />
            <path transform="translate(114,511)" d="m0 0 6 5 8 1 1 4-2 4 1 9-5 1h-6l-3 3-4-1-1-7-6-4 1-4 7-2 1-7zm1 9-4 4v2h2l2 4 5-1 1-7z" fill="#1A1A1A" />
            <path transform="translate(246,457)" d="m0 0 3 1v4l-9 7-6 7-7 13-3 10-1 10-1 2-4-1v-10l3-11 5-12 9-11z" fill="#1F1F1F" />
            <path transform="translate(153,459)" d="m0 0 4 1 11 12 8 13 5 14 2 10-1 2-4-1-4-15-8-16-9-11-5-5z" fill="#1E1E1E" />
            <path transform="translate(260,496)" d="m0 0h7l2 1v4l-11 1-10 5-6 5-5 7-4-1 1-4 7-9 9-6 4-2z" fill="#212121" />
            <path transform="translate(135,496)" d="m0 0h7l10 4 10 9 4 6-1 4h-3l-6-8-7-6-7-3-7-1-1-3z" fill="#191919" />
            <path transform="translate(254,519)" d="m0 0 6 1 4 4v8l-3 3-8 1-5-5v-7zm0 6-1 5 5 1 2-4-2-2z" fill="#202020" />
            <path transform="translate(127,461)" d="m0 0 7 1 3 4v7l-4 4-7 1-5-5v-7l4-4zm1 5-2 1v5l5 1 1-1v-5z" fill="#1A1A1A" />
            <path transform="translate(289,554)" d="m0 0h7l4 3 1 7-2 4-5 2-6-1-3-3-1-5 3-6zm2 5-1 5 5 1 1-5z" fill="#1F1F1F" />
            <path transform="translate(280,465)" d="m0 0h8l4 5v6l-4 4-2 1h-6l-4-4v-8zm1 5-1 4 2 2 5-1-1-5z" fill="#272727" />
            <path transform="translate(367,608)" d="m0 0 3 1 2 4 2-5h2v15l-5 1h-3-1z" fill="#3F3F3F" />
            <path transform="translate(496,608)" d="m0 0 3 1v3h2v-3h2v14h-3l-2-3-1 3h-2v-14z" fill="#6C6C6C" />
            <path transform="translate(738,608)" d="m0 0 3 1 1 3 2-4 1 1v14h-3l-2-5-1 5h-2v-14z" fill="#5A5A5A" />
            <path transform="translate(389,608)" d="m0 0 5 1 1 1 1 10-1 3-6 1-1-1v-14zm2 3v3h2v-3zm0 6v4h2v-4z" fill="#3F3F3F" />
            <path transform="translate(479,608)" d="m0 0 4 1 1 2v10l-3 3-4-1-1-5 1-8zm0 3v10h2v-10z" fill="#9D9D9D" />
            <path transform="translate(775,608)" d="m0 0 2 1 1 12 1-12 2-1v15l-5 1-2-2v-13z" fill="#424242" />
            <path transform="translate(409,608)" d="m0 0 4 1 2 14h-3-3-2l1-11zm1 6v5h1v-5z" fill="#484848" />
            <path transform="translate(530,608)" d="m0 0h3l2 8v7l-4-1-3 1 1-12zm1 8 1 3z" fill="#747474" />
            <path transform="translate(580,608)" d="m0 0 3 1 2 14h-3v-2l-5 2 1-12zm0 7 1 3z" fill="#848484" />
            <path transform="translate(683,608)" d="m0 0 5 1 1 1v12l-2 2-5-1v-14zm1 3v10l3-1v-8z" fill="#292929" />
            <path transform="translate(665,608)" d="m0 0 4 2 1 13-5-2v2l-3-1 2-12zm1 7 1 4z" fill="#3C3C3C" />
            <path transform="translate(794,608)" d="m0 0 5 1 1 1v13h-2l-1-4-2-1v5h-2v-14zm1 3v4l3-1-1-3z" fill="#202020" />
            <path transform="translate(427,608)" d="m0 0 5 1 1 1v13h-2v-5h-3v5h-2v-14zm2 3v4l2-1v-3z" fill="#1D1D1D" />
            <path transform="translate(720,608)" d="m0 0h5v3h-3v4l3 1-3 1 1 4 3 2-1 1h-5l-1-1v-14z" fill="#292929" />
            <path transform="translate(701,608)" d="m0 0 2 2 1 5 2-6h2l-1 10-2 5-3-1-2-14z" fill="#525252" />
            <path transform="translate(451,608)" d="m0 0 1 3-2 5 2 7-3-1v-2h-2v3h-2v-14h2v3h2z" fill="#333" />
            <path transform="translate(349,608)" d="m0 0h5v3h-3v4l3 1-3 1 1 4 3 2-1 1h-5l-1-1v-14z" fill="#3A3A3A" />
            <path transform="translate(632,608)" d="m0 0h5v3h-3v4h3v2h-3l1 4 3 2-5 1-2-5v-8z" fill="#616161" />
            <path transform="translate(598,608)" d="m0 0 4 1 1 3-5-1 3 5 2 5-3 3-4-1 1-4 3 2-3-5-1-1v-5z" fill="#555" />
            <path transform="translate(812,608)" d="m0 0h5v3h-3v4h3v2l-2 1v3l3 2-5 1-1-1z" fill="#262626" />
            <path transform="translate(757,608)" d="m0 0h6v3h-2v12h-3l-1-12z" fill="#484848" />
            <path transform="translate(614,608)" d="m0 0h6v3h-2v12l-2 1v-13l-3-1z" fill="#676767" />
            <path transform="translate(560,608)" d="m0 0h6v3h-2v12h-2v-12h-2z" fill="#636363" />
            <path transform="translate(479,608)" d="m0 0 4 1v11h-1v-9h-3v6h-2v-7z" fill="#171717" />
            <path transform="translate(580,608)" d="m0 0 3 1v9l-1-4h-3l-1 4v-7z" fill="#3C3C3C" />
            <path transform="translate(719,609)" d="m0 0h1l1 9 2 3 3 2-1 1h-5l-1-1z" fill="#C0C0C0" />
            <path transform="translate(348,614)" d="m0 0 3 4 1 3 3 2-1 1h-5l-1-1z" fill="#A6A6A6" />
            <path transform="translate(530,608)" d="m0 0h3v7l-4 1z" fill="#2C2C2C" />
            <path transform="translate(163,492)" d="m0 0 3 1-1 4-4-2z" fill="#1E1E1E" />
            <path transform="translate(275,543)" d="m0 0 4 1-1 3-4-1z" fill="#2E2E2E" />
            <path transform="translate(235,496)" d="m0 0h4v4h-4z" fill="#2E2E2E" />
            <path transform="translate(179,463)" d="m0 0 4 1-1 3-4-1z" fill="#111" />
            <path transform="translate(146,532)" d="m0 0h4l-1 4-3-1z" fill="#323232" />
        </svg>